<svg width="360" height="2128" viewBox="0 0 360 2128" fill="none" xmlns="http://www.w3.org/2000/svg">
<path d="M144.481 1577.16C145.64 1578.55 147.581 1576.52 147.58 1575.06C148.904 1572.69 146.423 1571.12 144.989 1573.32C143.554 1574.06 142.825 1576.83 144.481 1577.16ZM144.809 1576.73C143.263 1576.57 144.212 1574.14 145.177 1573.6L145.224 1573.36C146.465 1571.42 148.397 1572.78 147.156 1574.73L147.109 1574.96C147.165 1576.14 145.595 1578.05 144.574 1576.68L144.809 1576.73Z" fill="white"/>
<path d="M140.167 1574.51C141.326 1575.91 143.312 1573.64 143.313 1572.17C144.639 1569.79 142.139 1568.31 140.675 1570.67C139.239 1571.41 138.511 1574.18 140.167 1574.51ZM140.495 1574.08C138.95 1573.92 139.897 1571.5 140.864 1570.95L140.91 1570.71C142.154 1568.76 144.086 1570.12 142.842 1572.08C142.897 1573.26 141.281 1575.41 140.26 1574.03L140.495 1574.08Z" fill="white"/>
<path d="M145.945 1582.3C147.026 1583.38 148.95 1582.37 148.67 1580.86C149.579 1579.16 146.983 1577.66 145.797 1579.32C144.414 1579.77 144.589 1581.89 145.945 1582.3ZM146.273 1581.87L146.038 1581.82C144.958 1581.47 144.935 1579.83 145.985 1579.6L146.221 1579.65C147.048 1578.36 149.026 1579.48 148.199 1580.77L148.153 1581.01C148.376 1582.07 147.059 1583 146.227 1582.11L146.273 1581.87Z" fill="white"/>
<path d="M134.921 1575.79C136.002 1576.88 137.926 1575.86 137.646 1574.36C138.555 1572.65 135.959 1571.16 134.773 1572.81C133.391 1573.27 133.565 1575.38 134.921 1575.79ZM135.249 1575.37L135.014 1575.32C133.935 1574.96 133.911 1573.32 134.962 1573.1L135.197 1573.14C136.024 1571.85 138.002 1572.98 137.175 1574.27L137.129 1574.5C137.352 1575.56 136.035 1576.49 135.203 1575.6L135.249 1575.37Z" fill="white"/>
<path d="M143.64 1581.49C145.883 1577.42 139.162 1573.3 136.668 1577.17C131.885 1578.71 134.294 1582.29 137.25 1584.18C140.233 1585.92 144.545 1586.47 143.64 1581.49ZM143.17 1581.4C144.017 1585.93 140.282 1585.44 137.578 1583.75C134.874 1582.05 132.333 1579.14 136.81 1577.69L136.857 1577.45C139.156 1573.83 145.191 1577.72 143.17 1581.4Z" fill="white"/>
<path d="M45.687 1594.78C41.9649 1595.86 38.5219 1598.81 39.4971 1602.19L40.9258 1607.15C41.9011 1610.53 46.3964 1611.23 50.1185 1610.16C53.8407 1609.09 57.2837 1606.13 56.3084 1602.75L54.8712 1597.76C53.9045 1594.41 49.4092 1593.71 45.687 1594.78ZM45.7518 1609.36C43.555 1609.16 41.9486 1608.21 41.5979 1606.99L40.8108 1604.26C41.8642 1605.18 43.3736 1605.61 45.0079 1605.68C44.8468 1606.34 44.8998 1607.19 45.1308 1608C45.2762 1608.5 45.494 1608.95 45.7518 1609.36ZM42.53 1604.02C43.5994 1602.68 45.3788 1601.56 47.4665 1600.96C49.5541 1600.36 51.6586 1600.36 53.2756 1600.92C52.2776 1602.14 50.58 1603.31 48.3305 1603.96C46.0896 1604.63 44.0327 1604.55 42.53 1604.02ZM55.6449 1602.94C56.1924 1604.84 53.9107 1607.75 49.7678 1608.94C48.8777 1609.2 48.0429 1609.34 47.2309 1609.38C46.6789 1609.41 46.0595 1608.72 45.7943 1607.8C45.6403 1607.27 45.6167 1606.76 45.7406 1606.34C45.8483 1605.92 46.0883 1605.66 46.3967 1605.64C47.1677 1605.58 47.9454 1605.42 48.6898 1605.2C51.4895 1604.39 54.1355 1602.51 54.8493 1600.18L55.6449 1602.94ZM53.888 1600.01C52.096 1599.14 49.5918 1599.03 47.1157 1599.74C44.6397 1600.45 42.5803 1601.88 41.524 1603.57C40.8274 1603.16 40.3403 1602.63 40.1606 1602C39.6131 1600.1 41.8949 1597.2 46.0378 1596C50.1807 1594.81 53.6687 1596.08 54.2077 1597.95C54.3873 1598.58 54.2595 1599.29 53.888 1600.01Z" fill="white"/>
<path d="M47.1258 1608.29C47.3492 1608.22 47.4346 1607.84 47.3165 1607.43C47.1984 1607.02 46.9215 1606.74 46.698 1606.8C46.4746 1606.87 46.3892 1607.25 46.5073 1607.66C46.6255 1608.07 46.9023 1608.35 47.1258 1608.29Z" fill="white"/>
<path d="M48.4468 1608.07C48.6703 1608 48.7557 1607.62 48.6375 1607.21C48.5194 1606.8 48.2425 1606.52 48.0191 1606.58C47.7956 1606.65 47.7103 1607.03 47.8284 1607.44C47.9465 1607.85 48.2234 1608.13 48.4468 1608.07Z" fill="white"/>
<path d="M49.7586 1607.75C49.982 1607.69 50.0674 1607.31 49.9493 1606.9C49.8312 1606.49 49.5543 1606.21 49.3309 1606.27C49.1074 1606.34 49.022 1606.72 49.1401 1607.13C49.2583 1607.54 49.5352 1607.82 49.7586 1607.75Z" fill="white"/>
<path d="M51.0201 1607.33C51.2435 1607.26 51.3289 1606.88 51.2108 1606.47C51.0927 1606.06 50.8158 1605.78 50.5923 1605.84C50.3689 1605.91 50.2835 1606.29 50.4016 1606.7C50.5197 1607.11 50.7966 1607.39 51.0201 1607.33Z" fill="white"/>
<path d="M249.031 1575.22C248.323 1573.54 246.783 1572.57 245.603 1573.07C244.563 1573.5 244.137 1574.88 244.522 1576.36L238.25 1579C237.462 1577.69 236.179 1577.03 235.139 1577.47C233.959 1577.96 233.574 1579.74 234.282 1581.43C234.59 1582.16 235.049 1582.77 235.599 1583.17C235.506 1583.86 235.614 1584.59 235.922 1585.32C236.63 1587.01 238.17 1587.97 239.349 1587.48C240.39 1587.04 240.815 1585.66 240.43 1584.18L246.686 1581.55C247.475 1582.86 248.757 1583.52 249.798 1583.08C250.977 1582.59 251.362 1580.81 250.655 1579.13C250.347 1578.4 249.888 1577.78 249.338 1577.39C249.447 1576.69 249.338 1575.95 249.031 1575.22ZM248.695 1578.2C249.17 1578.42 249.59 1578.9 249.832 1579.47C250.27 1580.51 250.034 1581.6 249.304 1581.91C248.59 1582.21 247.664 1581.66 247.211 1580.63C247.071 1580.29 246.783 1580.13 246.55 1580.23L239.579 1583.16C239.346 1583.26 239.287 1583.59 239.402 1583.91C239.815 1584.94 239.585 1586 238.856 1586.3C238.126 1586.61 237.182 1586.02 236.744 1584.98C236.502 1584.4 236.456 1583.77 236.633 1583.28C236.695 1583.12 236.667 1582.92 236.592 1582.75C236.518 1582.57 236.381 1582.42 236.241 1582.35C235.766 1582.13 235.347 1581.66 235.105 1581.08C234.667 1580.04 234.903 1578.95 235.633 1578.64C236.347 1578.34 237.272 1578.89 237.726 1579.92C237.865 1580.26 238.154 1580.42 238.387 1580.32L245.389 1577.38C245.621 1577.28 245.68 1576.94 245.566 1576.63C245.153 1575.6 245.382 1574.54 246.112 1574.23C246.842 1573.93 247.786 1574.52 248.223 1575.56C248.466 1576.14 248.512 1576.77 248.335 1577.26C248.273 1577.42 248.301 1577.61 248.376 1577.79C248.419 1577.98 248.556 1578.13 248.695 1578.2Z" fill="white"/>
<path d="M240.538 1575.67C240.77 1575.57 240.845 1575.22 240.705 1574.89L240.044 1573.32C239.904 1572.99 239.606 1572.8 239.373 1572.9C239.14 1573 239.066 1573.34 239.206 1573.67L239.867 1575.25C240.007 1575.58 240.305 1575.76 240.538 1575.67Z" fill="white"/>
<path d="M242.264 1575.51C242.345 1575.53 242.4 1575.53 242.463 1575.51C242.618 1575.44 242.717 1575.25 242.695 1575.02L242.565 1573.41C242.537 1573.08 242.295 1572.76 242.028 1572.69C241.77 1572.65 241.578 1572.88 241.59 1573.22L241.721 1574.83C241.748 1575.16 241.991 1575.47 242.264 1575.51Z" fill="white"/>
<path d="M238.557 1576.73C238.727 1576.92 238.914 1576.98 239.069 1576.91C239.131 1576.88 239.184 1576.84 239.212 1576.77C239.358 1576.55 239.302 1576.16 239.078 1575.89L238.016 1574.67C237.802 1574.42 237.498 1574.39 237.336 1574.62C237.191 1574.83 237.246 1575.23 237.47 1575.5L238.557 1576.73Z" fill="white"/>
<path d="M244.414 1584.88C244.181 1584.98 244.106 1585.32 244.246 1585.65L244.907 1587.23C245.047 1587.56 245.345 1587.74 245.578 1587.65C245.811 1587.55 245.885 1587.2 245.746 1586.87L245.084 1585.3C244.944 1584.97 244.646 1584.78 244.414 1584.88Z" fill="white"/>
<path d="M242.687 1585.03C242.429 1584.98 242.236 1585.22 242.249 1585.55L242.379 1587.17C242.407 1587.49 242.649 1587.81 242.916 1587.88C242.997 1587.9 243.053 1587.9 243.115 1587.87C243.27 1587.81 243.37 1587.61 243.348 1587.39L243.218 1585.77C243.202 1585.39 242.96 1585.07 242.687 1585.03Z" fill="white"/>
<path d="M246.393 1583.81C246.179 1583.56 245.875 1583.53 245.713 1583.76C245.568 1583.98 245.623 1584.37 245.847 1584.64L246.909 1585.86C247.08 1586.05 247.266 1586.1 247.421 1586.04C247.483 1586.01 247.536 1585.96 247.564 1585.9C247.71 1585.68 247.654 1585.29 247.43 1585.02L246.393 1583.81Z" fill="white"/>
<path d="M359.03 6.22186C358.322 4.53886 356.782 3.57076 355.603 4.06705C354.562 4.50457 354.137 5.88238 354.522 7.36239L348.25 10.0006C347.461 8.69033 346.179 8.03083 345.139 8.46835C343.959 8.96464 343.574 10.7425 344.282 12.4255C344.589 13.1563 345.049 13.7709 345.599 14.1653C345.505 14.856 345.614 15.5922 345.921 16.323C346.629 18.006 348.169 18.9741 349.349 18.4778C350.389 18.0403 350.815 16.6624 350.43 15.1824L356.686 12.5508C357.475 13.861 358.757 14.5205 359.797 14.083C360.977 13.5867 361.362 11.8089 360.654 10.1259C360.347 9.39509 359.887 8.78044 359.338 8.38609C359.446 7.68881 359.338 6.95264 359.03 6.22186ZM358.695 9.20376C359.17 9.42094 359.589 9.8962 359.831 10.472C360.269 11.5128 360.033 12.6024 359.304 12.9093C358.59 13.2097 357.664 12.6606 357.211 11.6264C357.071 11.2942 356.782 11.129 356.55 11.2269L349.579 14.1589C349.346 14.2569 349.287 14.5945 349.402 14.911C349.815 15.9362 349.585 16.9972 348.856 17.3041C348.126 17.611 347.182 17.0177 346.744 15.9769C346.502 15.4011 346.455 14.7691 346.632 14.2777C346.695 14.1212 346.667 13.9245 346.592 13.7473C346.518 13.5702 346.381 13.4191 346.241 13.3476C345.766 13.1304 345.347 12.6551 345.105 12.0794C344.667 11.0386 344.903 9.94894 345.633 9.64202C346.347 9.34164 347.272 9.8907 347.725 10.925C347.865 11.2571 348.154 11.4224 348.387 11.3244L355.388 8.37934C355.621 8.28139 355.68 7.94382 355.565 7.62726C355.152 6.60207 355.382 5.5411 356.112 5.23419C356.841 4.92727 357.785 5.52063 358.223 6.56143C358.465 7.13719 358.512 7.76917 358.335 8.26062C358.273 8.41706 358.301 8.6138 358.375 8.79096C358.419 8.98118 358.555 9.13222 358.695 9.20376Z" fill="white"/>
<path d="M350.539 6.66636C350.771 6.56841 350.846 6.22431 350.706 5.89214L350.045 4.31987C349.905 3.98769 349.607 3.80032 349.374 3.89827C349.141 3.99622 349.067 4.34032 349.207 4.67249L349.868 6.24477C350.008 6.57694 350.306 6.76432 350.539 6.66636Z" fill="white"/>
<path d="M352.265 6.51362C352.346 6.53179 352.401 6.53435 352.464 6.50823C352.619 6.44293 352.718 6.24476 352.696 6.01933L352.566 4.40617C352.538 4.0791 352.296 3.76397 352.029 3.69385C351.771 3.64587 351.579 3.88322 351.591 4.21681L351.721 5.82998C351.749 6.15704 351.992 6.47218 352.265 6.51362Z" fill="white"/>
<path d="M348.558 7.73422C348.728 7.92301 348.915 7.97497 349.07 7.90967C349.132 7.88355 349.185 7.83528 349.213 7.7714C349.359 7.55364 349.303 7.16014 349.079 6.8893L348.017 5.66794C347.803 5.41924 347.499 5.39085 347.337 5.61514C347.192 5.8329 347.247 6.2264 347.471 6.49724L348.558 7.73422Z" fill="white"/>
<path d="M354.414 15.8786C354.181 15.9766 354.106 16.3207 354.246 16.6528L354.907 18.2251C355.047 18.5573 355.345 18.7447 355.578 18.6467C355.811 18.5488 355.885 18.2047 355.746 17.8725L355.084 16.3002C354.944 15.968 354.646 15.7807 354.414 15.8786Z" fill="white"/>
<path d="M352.687 16.0313C352.429 15.9833 352.237 16.2206 352.249 16.5542L352.38 18.1674C352.408 18.4944 352.65 18.8096 352.917 18.8797C352.998 18.8979 353.053 18.9004 353.116 18.8743C353.271 18.809 353.37 18.6108 353.348 18.3854L353.218 16.7722C353.203 16.3878 352.96 16.0727 352.687 16.0313Z" fill="white"/>
<path d="M356.394 14.8108C356.18 14.5621 355.876 14.5337 355.714 14.758C355.568 14.9757 355.624 15.3692 355.848 15.6401L356.91 16.8614C357.081 17.0502 357.267 17.1022 357.422 17.0369C357.484 17.0108 357.537 16.9625 357.565 16.8986C357.711 16.6808 357.655 16.2874 357.431 16.0165L356.394 14.8108Z" fill="white"/>
<path d="M-67.0447 989.223C-166.82 1014.86 -261.21 984.25 -295.916 965.569L-306 608.315C-233.083 630.138 -29.0009 644.83 208.302 599.343C453.855 552.273 390.708 626.264 531.001 650.728C538.965 712.142 617.008 885.36 510.394 965.569C403.78 1045.78 457.542 990.594 334.576 989.223C242.297 978.539 32.7308 963.583 -67.0447 989.223Z" fill="#FFFAF3"/>
<path d="M135.013 1558.18C6.37782 1528.62 -7.70963 1545.86 1.32604 1558.18C-40.4126 1644.84 -111.938 1803.98 -64.1313 1747.21C-4.37259 1676.25 189.073 1779.84 307.204 1769.99C401.709 1762.11 501.112 1723.09 539 1704.57V1514L401.001 1541.09C356.023 1553.87 263.648 1587.73 135.013 1558.18Z" fill="url(#paint0_linear_130_1826)"/>
<g filter="url(#filter0_f_130_1826)">
<path d="M29.8953 2093.08C33.9404 2097.81 31.2117 2102.55 31.3494 2110.2C31.5022 2121.33 25.7016 2124.82 21.3261 2121.87C17.0157 2119.08 17.7602 2112.08 13.8879 2108.21C10.2558 2104.07 3.58948 2104.35 1.11386 2099.59C-1.29669 2094.99 2.51934 2089.67 13.5031 2090.69C20.8473 2091.43 25.5448 2088.47 29.8953 2093.08Z" fill="#FFFAF3"/>
<path d="M42.5779 2100.65C36.9295 2101.13 32.9586 2104.69 33.3968 2108.35C33.835 2112.02 39.2907 2114.43 44.8743 2113.8C50.5227 2113.33 54.5584 2109.93 54.0555 2106.1C53.5525 2102.28 48.2263 2100.18 42.5779 2100.65Z" fill="#FFFAF3"/>
<path d="M22.375 2079.03C21.6587 2084.66 18.2491 2088.27 14.6955 2087.38C11.1419 2086.49 8.79804 2080.76 9.72563 2075.24C10.442 2069.6 13.8516 2065.99 17.4052 2066.88C20.9588 2067.77 23.3026 2073.5 22.375 2079.03Z" fill="#FFFAF3"/>
<path d="M41.795 2083.11C36.7461 2086.32 33.9858 2091.42 36.1627 2094.96C38.3396 2098.5 44.2869 2098.73 49.3358 2095.51C54.3847 2092.29 57.145 2087.2 54.9681 2083.66C52.7912 2080.11 46.8439 2079.89 41.795 2083.11Z" fill="#FFFAF3"/>
<path d="M41.0512 2080.74C37.7051 2085.49 32.6878 2086.94 29.6067 2084.42C26.5256 2081.89 27.0698 2076.07 30.4159 2071.32C33.7619 2066.58 38.7792 2065.12 41.8603 2067.65C44.9414 2070.18 44.3972 2075.99 41.0512 2080.74Z" fill="#FFFAF3"/>
</g>
<g filter="url(#filter1_f_130_1826)">
<path d="M346.479 2055.84C349.6 2054.14 351.925 2056.23 356.218 2057.07C362.458 2058.31 363.713 2061.97 361.544 2064.06C359.472 2066.14 355.648 2064.89 353.024 2066.59C350.275 2068.13 349.64 2071.88 346.685 2072.7C343.827 2073.5 341.306 2070.73 343.188 2064.72C344.475 2060.7 343.385 2057.72 346.479 2055.84Z" fill="#FFFAF3"/>
<path d="M352.221 2049.65C351.812 2052.87 353.328 2055.51 355.43 2055.7C357.531 2055.9 359.529 2053.13 359.843 2049.94C360.252 2046.73 358.832 2044.07 356.634 2043.89C354.437 2043.72 352.631 2046.44 352.221 2049.65Z" fill="#FFFAF3"/>
<path d="M337.728 2058.37C340.791 2059.44 342.403 2061.78 341.482 2063.66C340.561 2065.54 337.08 2066.16 334.101 2064.98C331.038 2063.91 329.426 2061.58 330.347 2059.7C331.268 2057.82 334.749 2057.19 337.728 2058.37Z" fill="#FFFAF3"/>
<path d="M342.322 2048C343.517 2051.21 346.035 2053.36 348.274 2052.56C350.513 2051.77 351.348 2048.47 350.152 2045.27C348.957 2042.06 346.439 2039.91 344.2 2040.7C341.961 2041.5 341.126 2044.8 342.322 2048Z" fill="#FFFAF3"/>
<path d="M340.912 2048.13C343.167 2050.57 343.38 2053.55 341.601 2054.97C339.821 2056.39 336.636 2055.39 334.381 2052.96C332.126 2050.52 331.912 2047.54 333.692 2046.12C335.471 2044.7 338.657 2045.7 340.912 2048.13Z" fill="#FFFAF3"/>
</g>
<g filter="url(#filter2_f_130_1826)">
<path d="M333.895 186.083C337.94 190.806 335.212 195.547 335.349 203.2C335.502 214.332 329.702 217.817 325.326 214.868C321.016 212.079 321.76 205.079 317.888 201.209C314.256 197.065 307.589 197.351 305.114 192.591C302.703 187.991 306.519 182.666 317.503 183.692C324.847 184.428 329.545 181.474 333.895 186.083Z" fill="#FFFAF3"/>
<path d="M346.578 193.653C340.93 194.125 336.959 197.685 337.397 201.352C337.835 205.019 343.291 207.431 348.874 206.801C354.523 206.329 358.558 202.927 358.055 199.102C357.553 195.277 352.226 193.181 346.578 193.653Z" fill="#FFFAF3"/>
<path d="M326.375 172.029C325.659 177.663 322.249 181.274 318.695 180.384C315.142 179.494 312.798 173.765 313.726 168.237C314.442 162.603 317.852 158.991 321.405 159.882C324.959 160.772 327.303 166.501 326.375 172.029Z" fill="#FFFAF3"/>
<path d="M345.795 176.106C340.746 179.322 337.986 184.415 340.163 187.958C342.34 191.501 348.287 191.725 353.336 188.509C358.385 185.294 361.145 180.2 358.968 176.657C356.791 173.114 350.844 172.89 345.795 176.106Z" fill="#FFFAF3"/>
<path d="M345.051 173.742C341.705 178.49 336.688 179.943 333.607 177.416C330.526 174.889 331.07 169.072 334.416 164.324C337.762 159.576 342.779 158.123 345.86 160.65C348.941 163.177 348.397 168.994 345.051 173.742Z" fill="#FFFAF3"/>
</g>
<g filter="url(#filter3_f_130_1826)">
<path d="M325.119 251.601C326.959 249.673 329.099 250.633 332.356 250.246C337.096 249.703 338.831 252.027 337.762 254.019C336.757 255.977 333.74 255.96 332.256 257.777C330.645 259.504 331.054 262.334 329.13 263.594C327.272 264.82 324.838 263.421 324.803 258.693C324.802 255.53 323.341 253.654 325.119 251.601Z" fill="#FFFAF3"/>
<path d="M327.803 245.868C328.247 248.256 329.935 249.796 331.48 249.452C333.025 249.108 333.819 246.678 333.311 244.324C332.867 241.936 331.243 240.361 329.634 240.74C328.024 241.118 327.359 243.479 327.803 245.868Z" fill="#FFFAF3"/>
<path d="M319.449 255.411C321.883 255.474 323.569 256.773 323.342 258.327C323.115 259.88 320.773 261.126 318.375 260.968C315.942 260.904 314.256 259.605 314.483 258.052C314.71 256.498 317.052 255.253 319.449 255.411Z" fill="#FFFAF3"/>
<path d="M320.354 246.955C321.942 248.97 324.233 249.928 325.65 248.848C327.067 247.767 326.907 245.222 325.319 243.207C323.731 241.192 321.441 240.234 320.024 241.314C318.606 242.394 318.766 244.94 320.354 246.955Z" fill="#FFFAF3"/>
<path d="M319.378 247.374C321.546 248.596 322.381 250.674 321.436 252.096C320.491 253.518 317.987 253.536 315.818 252.313C313.65 251.09 312.815 249.013 313.76 247.591C314.706 246.168 317.209 246.151 319.378 247.374Z" fill="#FFFAF3"/>
</g>
<g filter="url(#filter4_f_130_1826)">
<path d="M11.5894 1510.32C14.8098 1506.94 18.5532 1508.62 24.2534 1507.95C32.549 1507 35.585 1511.06 33.7137 1514.55C31.9561 1517.97 26.6766 1517.95 24.0794 1521.13C21.2602 1524.15 21.9744 1529.1 18.6084 1531.31C15.3563 1533.45 11.0964 1531 11.0364 1522.73C11.0344 1517.19 8.47726 1513.91 11.5894 1510.32Z" fill="#FFFAF3"/>
<path d="M16.2859 1500.28C17.0625 1504.46 20.0175 1507.16 22.7209 1506.56C25.4244 1505.95 26.8144 1501.7 25.9246 1497.58C25.148 1493.4 22.3062 1490.65 19.4896 1491.31C16.6729 1491.97 15.5093 1496.1 16.2859 1500.28Z" fill="#FFFAF3"/>
<path d="M1.66712 1516.98C5.92521 1517.1 8.87643 1519.37 8.47893 1522.09C8.08143 1524.81 3.98256 1526.99 -0.212308 1526.71C-4.4704 1526.6 -7.42162 1524.32 -7.02412 1521.61C-6.62662 1518.89 -2.52775 1516.71 1.66712 1516.98Z" fill="#FFFAF3"/>
<path d="M3.25056 1502.19C6.02958 1505.71 10.0378 1507.39 12.518 1505.5C14.9983 1503.61 14.7186 1499.15 11.9396 1495.63C9.16057 1492.1 5.15236 1490.42 2.6721 1492.31C0.191847 1494.21 0.471541 1498.66 3.25056 1502.19Z" fill="#FFFAF3"/>
<path d="M1.54202 1502.92C5.33674 1505.06 6.79772 1508.69 5.14352 1511.18C3.48931 1513.67 -0.892188 1513.7 -4.6869 1511.56C-8.48162 1509.42 -9.9426 1505.79 -8.2884 1503.3C-6.63419 1500.81 -2.25269 1500.78 1.54202 1502.92Z" fill="#FFFAF3"/>
</g>
<g filter="url(#filter5_f_130_1826)">
<path d="M293.99 1516.65C296.513 1517.51 296.542 1519.85 298.263 1522.64C300.75 1526.71 299.372 1529.27 297.115 1529.13C294.916 1529.05 293.662 1526.3 291.389 1525.72C289.145 1524.99 286.749 1526.55 284.797 1525.33C282.903 1524.16 283.148 1521.37 287.422 1519.34C290.292 1518.01 291.379 1515.9 293.99 1516.65Z" fill="#FFFAF3"/>
<path d="M300.32 1516.67C298.34 1518.08 297.653 1520.26 298.615 1521.51C299.577 1522.77 302.116 1522.47 304.037 1521.02C306.017 1519.61 306.763 1517.47 305.742 1516.17C304.721 1514.87 302.3 1515.26 300.32 1516.67Z" fill="#FFFAF3"/>
<path d="M288.148 1513.11C289.114 1515.34 288.645 1517.42 287.14 1517.86C285.635 1518.31 283.52 1516.71 282.655 1514.47C281.689 1512.24 282.158 1510.16 283.663 1509.71C285.168 1509.26 287.283 1510.87 288.148 1513.11Z" fill="#FFFAF3"/>
<path d="M296.2 1510.37C295.04 1512.66 295.134 1515.14 296.711 1515.97C298.287 1516.8 300.529 1515.59 301.689 1513.3C302.849 1511.01 302.754 1508.53 301.178 1507.7C299.602 1506.87 297.359 1508.08 296.2 1510.37Z" fill="#FFFAF3"/>
<path d="M295.409 1509.66C295.212 1512.14 293.679 1513.77 291.991 1513.51C290.303 1513.26 289.234 1510.99 289.431 1508.51C289.628 1506.03 291.161 1504.4 292.849 1504.66C294.537 1504.91 295.606 1507.18 295.409 1509.66Z" fill="#FFFAF3"/>
</g>
<defs>
<filter id="filter0_f_130_1826" x="-3.57935" y="2062.42" width="63.2986" height="64.444" filterUnits="userSpaceOnUse" color-interpolation-filters="sRGB">
<feFlood flood-opacity="0" result="BackgroundImageFix"/>
<feBlend mode="normal" in="SourceGraphic" in2="BackgroundImageFix" result="shape"/>
<feGaussianBlur stdDeviation="2" result="effect1_foregroundBlur_130_1826"/>
</filter>
<filter id="filter1_f_130_1826" x="326.089" y="2036.54" width="40.4409" height="40.2965" filterUnits="userSpaceOnUse" color-interpolation-filters="sRGB">
<feFlood flood-opacity="0" result="BackgroundImageFix"/>
<feBlend mode="normal" in="SourceGraphic" in2="BackgroundImageFix" result="shape"/>
<feGaussianBlur stdDeviation="2" result="effect1_foregroundBlur_130_1826"/>
</filter>
<filter id="filter2_f_130_1826" x="300.421" y="155.424" width="63.2986" height="64.444" filterUnits="userSpaceOnUse" color-interpolation-filters="sRGB">
<feFlood flood-opacity="0" result="BackgroundImageFix"/>
<feBlend mode="normal" in="SourceGraphic" in2="BackgroundImageFix" result="shape"/>
<feGaussianBlur stdDeviation="2" result="effect1_foregroundBlur_130_1826"/>
</filter>
<filter id="filter3_f_130_1826" x="312.375" y="239.683" width="26.6909" height="25.3314" filterUnits="userSpaceOnUse" color-interpolation-filters="sRGB">
<feFlood flood-opacity="0" result="BackgroundImageFix"/>
<feBlend mode="normal" in="SourceGraphic" in2="BackgroundImageFix" result="shape"/>
<feGaussianBlur stdDeviation="0.5" result="effect1_foregroundBlur_130_1826"/>
</filter>
<filter id="filter4_f_130_1826" x="-11.9626" y="1488.21" width="49.2092" height="46.8299" filterUnits="userSpaceOnUse" color-interpolation-filters="sRGB">
<feFlood flood-opacity="0" result="BackgroundImageFix"/>
<feBlend mode="normal" in="SourceGraphic" in2="BackgroundImageFix" result="shape"/>
<feGaussianBlur stdDeviation="1.5" result="effect1_foregroundBlur_130_1826"/>
</filter>
<filter id="filter5_f_130_1826" x="281.151" y="1503.63" width="26.0476" height="26.5101" filterUnits="userSpaceOnUse" color-interpolation-filters="sRGB">
<feFlood flood-opacity="0" result="BackgroundImageFix"/>
<feBlend mode="normal" in="SourceGraphic" in2="BackgroundImageFix" result="shape"/>
<feGaussianBlur stdDeviation="0.5" result="effect1_foregroundBlur_130_1826"/>
</filter>
<linearGradient id="paint0_linear_130_1826" x1="229.5" y1="1514" x2="229.574" y2="1702.88" gradientUnits="userSpaceOnUse">
<stop stop-color="#F1F3FF"/>
<stop offset="1" stop-color="#F1F3FF" stop-opacity="0"/>
</linearGradient>
</defs>
</svg>
